<svg fill="#000000" xmlns="http://www.w3.org/2000/svg"  viewBox="0 0 16 16" width="32px" height="32px"><path d="M15,3.297c-0.525,0.226-1.05,0.395-1.633,0.451c0.583-0.338,1.05-0.903,1.283-1.523c-0.583,0.338-1.167,0.564-1.808,0.677C12.258,2.338,11.5,2,10.683,2C9.108,2,7.825,3.241,7.825,4.764c0,0.226,0,0.451,0.058,0.621c-3.008,0-5.07-1.692-6.47-3.385C1.121,2.395,1.005,2.903,1.005,3.41c0,0.959,0.525,1.805,1.283,2.313C1.821,5.667,1.355,5.554,1.005,5.385c0,0,0,0,0,0.056c0,1.354,0.992,2.482,2.275,2.708C3.046,8.205,2.813,8.262,2.521,8.262c-0.175,0-0.35,0-0.525-0.056c0.35,1.128,1.979,2.426,3.262,2.426C4.267,11.364,3.344,12,1.5,12c-0.233,0-0.047,0-0.5,0c1.283,0.79,2.8,1,4.375,1c5.308,0,8.167-4.231,8.167-7.897c0-0.113,0-0.226,0-0.338C14.125,4.369,14.592,3.862,15,3.297"/></svg>